<?xml version="1.0" encoding="utf-8"?>
<!-- Generator: Adobe Illustrator 24.0.2, SVG Export Plug-In . SVG Version: 6.00 Build 0)  -->
<svg version="1.1" id="Capa_1" xmlns="http://www.w3.org/2000/svg" xmlns:xlink="http://www.w3.org/1999/xlink" x="0px" y="0px"
	 viewBox="0 0 200 200" style="enable-background:new 0 0 200 200;" xml:space="preserve">
<g>
	<path d="M195.1,171.5L123.6,100l71.6-71.6c6.5-6.5,6.5-17.1,0-23.6c-6.5-6.5-17.1-6.5-23.6,0L100,76.4L28.4,4.9
		c-6.5-6.5-17.1-6.5-23.6,0c-6.5,6.5-6.5,17,0,23.6L76.4,100L4.9,171.5c-6.5,6.5-6.5,17.1,0,23.6c3.3,3.3,7.5,4.9,11.8,4.9
		c4.3,0,8.5-1.6,11.8-4.9l71.6-71.6l71.6,71.6c3.3,3.3,7.5,4.9,11.8,4.9s8.5-1.6,11.8-4.9C201.6,188.6,201.6,178.1,195.1,171.5z"/>
</g>
</svg>
