<?xml version="1.0" encoding="utf-8"?>
<!-- Generator: Adobe Illustrator 24.0.2, SVG Export Plug-In . SVG Version: 6.00 Build 0)  -->
<svg version="1.1" id="Capa_1" xmlns="http://www.w3.org/2000/svg" xmlns:xlink="http://www.w3.org/1999/xlink" x="0px" y="0px"
	 viewBox="0 0 200 200" style="enable-background:new 0 0 200 200;" xml:space="preserve">
<g>
	
		<rect x="82.2" y="107.2" transform="matrix(3.665462e-02 -0.9993 0.9993 3.665462e-02 8.9416 239.3002)" style="fill:#FFFFFF;" width="92.8" height="15.7"/>
	<rect x="92.2" y="68.7" style="fill:#FFFFFF;" width="15.7" height="92.7"/>
	
		<rect x="63.6" y="68.6" transform="matrix(0.9993 -3.659400e-02 3.659400e-02 0.9993 -4.1609 2.6901)" style="fill:#FFFFFF;" width="15.7" height="92.8"/>
	<path style="fill:#FFFFFF;" d="M138.6,30v-17c0-7.2-5.9-13.1-13.1-13.1H74.4c-7.2,0-13.1,5.9-13.1,13.1v17H6.8v15.7h16.3
		l12.9,147.2c0.4,4,3.7,7.1,7.8,7.1h112c4.1,0,7.4-3.1,7.8-7.1l13-147.2h16.6V30H138.6z M77,15.7h46V30H77V15.7z M148.7,184.3H51
		L38.8,45.7h122.1L148.7,184.3z"/>
</g>
</svg>
