<?xml version="1.0" encoding="utf-8"?>
<!-- Generator: Adobe Illustrator 24.0.2, SVG Export Plug-In . SVG Version: 6.00 Build 0)  -->
<svg version="1.1" id="Capa_1" xmlns="http://www.w3.org/2000/svg" xmlns:xlink="http://www.w3.org/1999/xlink" x="0px" y="0px"
	 viewBox="0 0 200 200" style="enable-background:new 0 0 200 200;" xml:space="preserve">
<g>
	<path style="fill:#FFFFFF;" d="M187.6,87.6h-75.2V12.4C112.4,5.5,106.8,0,100,0c-6.8,0-12.4,5.5-12.4,12.4v75.2H12.4
		C5.5,87.6,0,93.2,0,100c0,6.8,5.5,12.4,12.4,12.4h75.2v75.2c0,6.8,5.5,12.4,12.4,12.4c3.4,0,6.5-1.4,8.8-3.6
		c2.2-2.2,3.6-5.3,3.6-8.8v-75.2h75.2c3.4,0,6.5-1.4,8.8-3.6c2.2-2.2,3.6-5.3,3.6-8.8C200,93.2,194.5,87.6,187.6,87.6z"/>
</g>
</svg>
