<?xml version="1.0" encoding="utf-8"?>
<!-- Generator: Adobe Illustrator 24.0.2, SVG Export Plug-In . SVG Version: 6.00 Build 0)  -->
<svg version="1.1" id="Capa_1" xmlns="http://www.w3.org/2000/svg" xmlns:xlink="http://www.w3.org/1999/xlink" x="0px" y="0px"
	 viewBox="0 0 200 200" style="enable-background:new 0 0 200 200;" xml:space="preserve">
<path style="fill:#FFFFFF;" d="M196.8,28.9l-2.8,1.7L196.8,28.9l-2.3-3.2c-0.4-0.5-0.9-1-1.4-1.5L175.6,6.7
	c-8.8-8.8-24.3-8.8-33.1,0L18.3,131c-0.2,0.2-0.4,0.4-0.5,0.6l-17.4,59c-0.7,2.6,0,5.3,1.9,7.2c1.4,1.4,3.3,2.1,5.2,2.1
	c0.7,0,1.3-0.1,2-0.3l56.6-16.2l-1-3.1l0,0h0l2.4,2.6L193.1,57.4c4.4-4.4,6.9-10.3,6.9-16.6C200,36.6,198.9,32.5,196.8,28.9z
	 M49.7,172.8L18,181.9l9.1-31.8L49.7,172.8z M182.8,47l-119,119l-29.9-29.9l119-119c1.6-1.6,3.8-2.5,6.2-2.5h0
	c2.4,0,4.6,0.9,6.2,2.5l17.5,17.5C186.2,38,186.2,43.6,182.8,47z"/>
</svg>
